<?xml version="1.0" encoding="UTF-8"?>
<svg xmlns="http://www.w3.org/2000/svg" xmlns:xlink="http://www.w3.org/1999/xlink" version="1.1" width="300px" height="300px" viewBox="0 0 300 300"><defs><rect id="r0" width="12" height="12" fill="#000000"/></defs><rect x="0" y="0" width="300" height="300" fill="#fefefe"/><use x="0" y="0" xlink:href="#r0"/><use x="12" y="0" xlink:href="#r0"/><use x="24" y="0" xlink:href="#r0"/><use x="36" y="0" xlink:href="#r0"/><use x="48" y="0" xlink:href="#r0"/><use x="60" y="0" xlink:href="#r0"/><use x="72" y="0" xlink:href="#r0"/><use x="96" y="0" xlink:href="#r0"/><use x="132" y="0" xlink:href="#r0"/><use x="144" y="0" xlink:href="#r0"/><use x="156" y="0" xlink:href="#r0"/><use x="216" y="0" xlink:href="#r0"/><use x="228" y="0" xlink:href="#r0"/><use x="240" y="0" xlink:href="#r0"/><use x="252" y="0" xlink:href="#r0"/><use x="264" y="0" xlink:href="#r0"/><use x="276" y="0" xlink:href="#r0"/><use x="288" y="0" xlink:href="#r0"/><use x="0" y="12" xlink:href="#r0"/><use x="72" y="12" xlink:href="#r0"/><use x="96" y="12" xlink:href="#r0"/><use x="108" y="12" xlink:href="#r0"/><use x="120" y="12" xlink:href="#r0"/><use x="144" y="12" xlink:href="#r0"/><use x="156" y="12" xlink:href="#r0"/><use x="192" y="12" xlink:href="#r0"/><use x="216" y="12" xlink:href="#r0"/><use x="288" y="12" xlink:href="#r0"/><use x="0" y="24" xlink:href="#r0"/><use x="24" y="24" xlink:href="#r0"/><use x="36" y="24" xlink:href="#r0"/><use x="48" y="24" xlink:href="#r0"/><use x="72" y="24" xlink:href="#r0"/><use x="120" y="24" xlink:href="#r0"/><use x="132" y="24" xlink:href="#r0"/><use x="144" y="24" xlink:href="#r0"/><use x="156" y="24" xlink:href="#r0"/><use x="168" y="24" xlink:href="#r0"/><use x="180" y="24" xlink:href="#r0"/><use x="192" y="24" xlink:href="#r0"/><use x="216" y="24" xlink:href="#r0"/><use x="240" y="24" xlink:href="#r0"/><use x="252" y="24" xlink:href="#r0"/><use x="264" y="24" xlink:href="#r0"/><use x="288" y="24" xlink:href="#r0"/><use x="0" y="36" xlink:href="#r0"/><use x="24" y="36" xlink:href="#r0"/><use x="36" y="36" xlink:href="#r0"/><use x="48" y="36" xlink:href="#r0"/><use x="72" y="36" xlink:href="#r0"/><use x="120" y="36" xlink:href="#r0"/><use x="156" y="36" xlink:href="#r0"/><use x="168" y="36" xlink:href="#r0"/><use x="216" y="36" xlink:href="#r0"/><use x="240" y="36" xlink:href="#r0"/><use x="252" y="36" xlink:href="#r0"/><use x="264" y="36" xlink:href="#r0"/><use x="288" y="36" xlink:href="#r0"/><use x="0" y="48" xlink:href="#r0"/><use x="24" y="48" xlink:href="#r0"/><use x="36" y="48" xlink:href="#r0"/><use x="48" y="48" xlink:href="#r0"/><use x="72" y="48" xlink:href="#r0"/><use x="96" y="48" xlink:href="#r0"/><use x="108" y="48" xlink:href="#r0"/><use x="120" y="48" xlink:href="#r0"/><use x="132" y="48" xlink:href="#r0"/><use x="156" y="48" xlink:href="#r0"/><use x="180" y="48" xlink:href="#r0"/><use x="216" y="48" xlink:href="#r0"/><use x="240" y="48" xlink:href="#r0"/><use x="252" y="48" xlink:href="#r0"/><use x="264" y="48" xlink:href="#r0"/><use x="288" y="48" xlink:href="#r0"/><use x="0" y="60" xlink:href="#r0"/><use x="72" y="60" xlink:href="#r0"/><use x="96" y="60" xlink:href="#r0"/><use x="132" y="60" xlink:href="#r0"/><use x="168" y="60" xlink:href="#r0"/><use x="192" y="60" xlink:href="#r0"/><use x="216" y="60" xlink:href="#r0"/><use x="288" y="60" xlink:href="#r0"/><use x="0" y="72" xlink:href="#r0"/><use x="12" y="72" xlink:href="#r0"/><use x="24" y="72" xlink:href="#r0"/><use x="36" y="72" xlink:href="#r0"/><use x="48" y="72" xlink:href="#r0"/><use x="60" y="72" xlink:href="#r0"/><use x="72" y="72" xlink:href="#r0"/><use x="96" y="72" xlink:href="#r0"/><use x="120" y="72" xlink:href="#r0"/><use x="144" y="72" xlink:href="#r0"/><use x="168" y="72" xlink:href="#r0"/><use x="192" y="72" xlink:href="#r0"/><use x="216" y="72" xlink:href="#r0"/><use x="228" y="72" xlink:href="#r0"/><use x="240" y="72" xlink:href="#r0"/><use x="252" y="72" xlink:href="#r0"/><use x="264" y="72" xlink:href="#r0"/><use x="276" y="72" xlink:href="#r0"/><use x="288" y="72" xlink:href="#r0"/><use x="96" y="84" xlink:href="#r0"/><use x="120" y="84" xlink:href="#r0"/><use x="132" y="84" xlink:href="#r0"/><use x="144" y="84" xlink:href="#r0"/><use x="180" y="84" xlink:href="#r0"/><use x="0" y="96" xlink:href="#r0"/><use x="12" y="96" xlink:href="#r0"/><use x="24" y="96" xlink:href="#r0"/><use x="60" y="96" xlink:href="#r0"/><use x="72" y="96" xlink:href="#r0"/><use x="96" y="96" xlink:href="#r0"/><use x="108" y="96" xlink:href="#r0"/><use x="120" y="96" xlink:href="#r0"/><use x="180" y="96" xlink:href="#r0"/><use x="204" y="96" xlink:href="#r0"/><use x="216" y="96" xlink:href="#r0"/><use x="228" y="96" xlink:href="#r0"/><use x="240" y="96" xlink:href="#r0"/><use x="276" y="96" xlink:href="#r0"/><use x="288" y="96" xlink:href="#r0"/><use x="0" y="108" xlink:href="#r0"/><use x="36" y="108" xlink:href="#r0"/><use x="48" y="108" xlink:href="#r0"/><use x="60" y="108" xlink:href="#r0"/><use x="84" y="108" xlink:href="#r0"/><use x="96" y="108" xlink:href="#r0"/><use x="108" y="108" xlink:href="#r0"/><use x="120" y="108" xlink:href="#r0"/><use x="192" y="108" xlink:href="#r0"/><use x="204" y="108" xlink:href="#r0"/><use x="216" y="108" xlink:href="#r0"/><use x="228" y="108" xlink:href="#r0"/><use x="252" y="108" xlink:href="#r0"/><use x="276" y="108" xlink:href="#r0"/><use x="288" y="108" xlink:href="#r0"/><use x="48" y="120" xlink:href="#r0"/><use x="72" y="120" xlink:href="#r0"/><use x="84" y="120" xlink:href="#r0"/><use x="96" y="120" xlink:href="#r0"/><use x="132" y="120" xlink:href="#r0"/><use x="156" y="120" xlink:href="#r0"/><use x="180" y="120" xlink:href="#r0"/><use x="204" y="120" xlink:href="#r0"/><use x="216" y="120" xlink:href="#r0"/><use x="240" y="120" xlink:href="#r0"/><use x="252" y="120" xlink:href="#r0"/><use x="264" y="120" xlink:href="#r0"/><use x="288" y="120" xlink:href="#r0"/><use x="0" y="132" xlink:href="#r0"/><use x="12" y="132" xlink:href="#r0"/><use x="48" y="132" xlink:href="#r0"/><use x="108" y="132" xlink:href="#r0"/><use x="168" y="132" xlink:href="#r0"/><use x="180" y="132" xlink:href="#r0"/><use x="192" y="132" xlink:href="#r0"/><use x="216" y="132" xlink:href="#r0"/><use x="252" y="132" xlink:href="#r0"/><use x="0" y="144" xlink:href="#r0"/><use x="12" y="144" xlink:href="#r0"/><use x="72" y="144" xlink:href="#r0"/><use x="84" y="144" xlink:href="#r0"/><use x="108" y="144" xlink:href="#r0"/><use x="132" y="144" xlink:href="#r0"/><use x="144" y="144" xlink:href="#r0"/><use x="156" y="144" xlink:href="#r0"/><use x="192" y="144" xlink:href="#r0"/><use x="204" y="144" xlink:href="#r0"/><use x="216" y="144" xlink:href="#r0"/><use x="288" y="144" xlink:href="#r0"/><use x="12" y="156" xlink:href="#r0"/><use x="108" y="156" xlink:href="#r0"/><use x="144" y="156" xlink:href="#r0"/><use x="156" y="156" xlink:href="#r0"/><use x="180" y="156" xlink:href="#r0"/><use x="216" y="156" xlink:href="#r0"/><use x="228" y="156" xlink:href="#r0"/><use x="276" y="156" xlink:href="#r0"/><use x="288" y="156" xlink:href="#r0"/><use x="0" y="168" xlink:href="#r0"/><use x="12" y="168" xlink:href="#r0"/><use x="24" y="168" xlink:href="#r0"/><use x="60" y="168" xlink:href="#r0"/><use x="72" y="168" xlink:href="#r0"/><use x="84" y="168" xlink:href="#r0"/><use x="96" y="168" xlink:href="#r0"/><use x="108" y="168" xlink:href="#r0"/><use x="144" y="168" xlink:href="#r0"/><use x="168" y="168" xlink:href="#r0"/><use x="180" y="168" xlink:href="#r0"/><use x="192" y="168" xlink:href="#r0"/><use x="252" y="168" xlink:href="#r0"/><use x="264" y="168" xlink:href="#r0"/><use x="288" y="168" xlink:href="#r0"/><use x="36" y="180" xlink:href="#r0"/><use x="48" y="180" xlink:href="#r0"/><use x="60" y="180" xlink:href="#r0"/><use x="108" y="180" xlink:href="#r0"/><use x="120" y="180" xlink:href="#r0"/><use x="132" y="180" xlink:href="#r0"/><use x="144" y="180" xlink:href="#r0"/><use x="168" y="180" xlink:href="#r0"/><use x="192" y="180" xlink:href="#r0"/><use x="216" y="180" xlink:href="#r0"/><use x="228" y="180" xlink:href="#r0"/><use x="240" y="180" xlink:href="#r0"/><use x="252" y="180" xlink:href="#r0"/><use x="0" y="192" xlink:href="#r0"/><use x="12" y="192" xlink:href="#r0"/><use x="36" y="192" xlink:href="#r0"/><use x="48" y="192" xlink:href="#r0"/><use x="72" y="192" xlink:href="#r0"/><use x="84" y="192" xlink:href="#r0"/><use x="96" y="192" xlink:href="#r0"/><use x="120" y="192" xlink:href="#r0"/><use x="156" y="192" xlink:href="#r0"/><use x="168" y="192" xlink:href="#r0"/><use x="180" y="192" xlink:href="#r0"/><use x="192" y="192" xlink:href="#r0"/><use x="204" y="192" xlink:href="#r0"/><use x="216" y="192" xlink:href="#r0"/><use x="228" y="192" xlink:href="#r0"/><use x="240" y="192" xlink:href="#r0"/><use x="276" y="192" xlink:href="#r0"/><use x="96" y="204" xlink:href="#r0"/><use x="156" y="204" xlink:href="#r0"/><use x="180" y="204" xlink:href="#r0"/><use x="192" y="204" xlink:href="#r0"/><use x="240" y="204" xlink:href="#r0"/><use x="288" y="204" xlink:href="#r0"/><use x="0" y="216" xlink:href="#r0"/><use x="12" y="216" xlink:href="#r0"/><use x="24" y="216" xlink:href="#r0"/><use x="36" y="216" xlink:href="#r0"/><use x="48" y="216" xlink:href="#r0"/><use x="60" y="216" xlink:href="#r0"/><use x="72" y="216" xlink:href="#r0"/><use x="108" y="216" xlink:href="#r0"/><use x="120" y="216" xlink:href="#r0"/><use x="132" y="216" xlink:href="#r0"/><use x="192" y="216" xlink:href="#r0"/><use x="216" y="216" xlink:href="#r0"/><use x="240" y="216" xlink:href="#r0"/><use x="288" y="216" xlink:href="#r0"/><use x="0" y="228" xlink:href="#r0"/><use x="72" y="228" xlink:href="#r0"/><use x="96" y="228" xlink:href="#r0"/><use x="156" y="228" xlink:href="#r0"/><use x="180" y="228" xlink:href="#r0"/><use x="192" y="228" xlink:href="#r0"/><use x="240" y="228" xlink:href="#r0"/><use x="276" y="228" xlink:href="#r0"/><use x="0" y="240" xlink:href="#r0"/><use x="24" y="240" xlink:href="#r0"/><use x="36" y="240" xlink:href="#r0"/><use x="48" y="240" xlink:href="#r0"/><use x="72" y="240" xlink:href="#r0"/><use x="108" y="240" xlink:href="#r0"/><use x="132" y="240" xlink:href="#r0"/><use x="144" y="240" xlink:href="#r0"/><use x="156" y="240" xlink:href="#r0"/><use x="180" y="240" xlink:href="#r0"/><use x="192" y="240" xlink:href="#r0"/><use x="204" y="240" xlink:href="#r0"/><use x="216" y="240" xlink:href="#r0"/><use x="228" y="240" xlink:href="#r0"/><use x="240" y="240" xlink:href="#r0"/><use x="288" y="240" xlink:href="#r0"/><use x="0" y="252" xlink:href="#r0"/><use x="24" y="252" xlink:href="#r0"/><use x="36" y="252" xlink:href="#r0"/><use x="48" y="252" xlink:href="#r0"/><use x="72" y="252" xlink:href="#r0"/><use x="108" y="252" xlink:href="#r0"/><use x="120" y="252" xlink:href="#r0"/><use x="144" y="252" xlink:href="#r0"/><use x="180" y="252" xlink:href="#r0"/><use x="204" y="252" xlink:href="#r0"/><use x="240" y="252" xlink:href="#r0"/><use x="264" y="252" xlink:href="#r0"/><use x="276" y="252" xlink:href="#r0"/><use x="0" y="264" xlink:href="#r0"/><use x="24" y="264" xlink:href="#r0"/><use x="36" y="264" xlink:href="#r0"/><use x="48" y="264" xlink:href="#r0"/><use x="72" y="264" xlink:href="#r0"/><use x="96" y="264" xlink:href="#r0"/><use x="144" y="264" xlink:href="#r0"/><use x="156" y="264" xlink:href="#r0"/><use x="168" y="264" xlink:href="#r0"/><use x="192" y="264" xlink:href="#r0"/><use x="204" y="264" xlink:href="#r0"/><use x="228" y="264" xlink:href="#r0"/><use x="240" y="264" xlink:href="#r0"/><use x="252" y="264" xlink:href="#r0"/><use x="276" y="264" xlink:href="#r0"/><use x="288" y="264" xlink:href="#r0"/><use x="0" y="276" xlink:href="#r0"/><use x="72" y="276" xlink:href="#r0"/><use x="96" y="276" xlink:href="#r0"/><use x="108" y="276" xlink:href="#r0"/><use x="120" y="276" xlink:href="#r0"/><use x="132" y="276" xlink:href="#r0"/><use x="144" y="276" xlink:href="#r0"/><use x="168" y="276" xlink:href="#r0"/><use x="192" y="276" xlink:href="#r0"/><use x="204" y="276" xlink:href="#r0"/><use x="216" y="276" xlink:href="#r0"/><use x="228" y="276" xlink:href="#r0"/><use x="240" y="276" xlink:href="#r0"/><use x="0" y="288" xlink:href="#r0"/><use x="12" y="288" xlink:href="#r0"/><use x="24" y="288" xlink:href="#r0"/><use x="36" y="288" xlink:href="#r0"/><use x="48" y="288" xlink:href="#r0"/><use x="60" y="288" xlink:href="#r0"/><use x="72" y="288" xlink:href="#r0"/><use x="96" y="288" xlink:href="#r0"/><use x="156" y="288" xlink:href="#r0"/><use x="168" y="288" xlink:href="#r0"/><use x="192" y="288" xlink:href="#r0"/><use x="204" y="288" xlink:href="#r0"/><use x="252" y="288" xlink:href="#r0"/><use x="288" y="288" xlink:href="#r0"/></svg>
